<?xml version="1.0" encoding="utf-8"?>
<!-- Generator: Adobe Illustrator 24.0.1, SVG Export Plug-In . SVG Version: 6.00 Build 0)  -->
<svg version="1.1" id="Capa_1" xmlns="http://www.w3.org/2000/svg" xmlns:xlink="http://www.w3.org/1999/xlink" x="0px" y="0px"
	 viewBox="0 0 737.9 210" style="enable-background:new 0 0 737.9 210;" xml:space="preserve">
<style type="text/css">
	.st0{fill:#3C3C3B;}
	.st1{fill:none;stroke:#4D4D4D;stroke-width:0.4704;stroke-miterlimit:10;}
	.st2{fill:#86252C;}
	.st3{fill:#232323;}
	.st4{fill:#AD2C25;}
	.st5{opacity:0.4;fill:url(#SVGID_1_);enable-background:new    ;}
	.st6{opacity:0.4;fill:url(#SVGID_2_);enable-background:new    ;}
	.st7{opacity:0.4;fill:url(#SVGID_3_);enable-background:new    ;}
	.st8{fill:url(#SVGID_4_);}
	.st9{fill:#CFE1F4;}
	.st10{fill:#4E5652;}
	.st11{fill:url(#SVGID_5_);}
	.st12{fill:url(#SVGID_6_);}
	.st13{fill:url(#SVGID_7_);}
	.st14{fill:url(#SVGID_8_);}
</style>
<path class="st0" d="M122.6,102.1c-0.4,0.4-0.9,0.9-1.3,1.3c0,0-0.1,0-0.1,0.1c-0.4,0.4-0.9,0.8-1.3,1.1c-0.1,0-0.1,0.1-0.2,0.1
	c-0.4,0.3-0.9,0.6-1.3,0.9c-0.1,0.1-0.2,0.1-0.3,0.2c-0.4,0.3-0.9,0.5-1.3,0.8c-0.1,0.1-0.3,0.1-0.4,0.2c-0.4,0.2-0.8,0.4-1.2,0.6
	c-0.2,0.1-0.4,0.1-0.6,0.2c-0.4,0.2-0.8,0.3-1.2,0.5c-0.3,0.1-0.5,0.1-0.8,0.2c-0.4,0.1-0.7,0.2-1.1,0.3c-0.3,0.1-0.6,0.1-0.9,0.2
	s-0.6,0.1-0.9,0.2c-0.4,0.1-0.8,0.1-1.2,0.1c-0.3,0-0.5,0.1-0.7,0.1c-0.6,0.1-1.3,0.1-2,0.1l0,0l0,0H83.3c-3.5,0-6.8,0.8-9.7,2.1
	c-1.2,0.5-2.3,1.2-3.4,1.9c-1.6,1.1-3.1,2.4-4.3,3.8c-2.6,2.9-4.4,6.4-5.3,10.3l-1.1,5.3c2.4-10.3,11.6-18,22.6-18h22.5l0,0
	c10.8,0,19.8-7.3,22.4-17.2c0,0,0.4-2.1,1-5C127,96.2,125.1,99.5,122.6,102.1L122.6,102.1z"/>
<g>
	<path class="st0" d="M136.8,194.6h-18.9l-1.1,5.5h14.5c13,0,26.2-8,31.4-19.4C157.1,189.1,147.6,194.6,136.8,194.6z"/>
	<path class="st0" d="M34.3,194.6c-15.6,0-27.2-14.3-24.1-29.5c5.9-29.1,14.1-69.3,14.3-70c1.5-7.2,5.6-13.5,11.3-17.9
		c-8.4,4.9-14.7,14-16.7,23.4c-0.2,0.7-7.9,38.5-13.7,67.3c-3.4,16.6,9.3,32.2,26.3,32.2h85.2l1.1-5.5H34.3z"/>
</g>
<path class="st1" d="M129,86.1"/>
<g>
	<path class="st2" d="M193.7,35c-2.7,1.9-6.9,3.3-13.3,3.3h-17.8c-5.3,0-10.1,0.4-14.5,2.8c0.4-2.2,0.7-3.4,1.1-5.5
		c1.8-8.4,2.1-15.8,6-20.9c0.8-1.1,1.8-2.1,2.9-2.9c1.4-1,2.8-1.8,4.1-2.5l0,0C149,13.9,148,27.7,145.9,37.9
		c-0.4,2-1.8,7.9-2.2,10.1c4.5-3,9.4-5.4,14.7-5.4h17.8c9.2,0,17.9-3.9,21.6-12.4C196.9,31.9,195.7,33.6,193.7,35z"/>
	<path d="M197.9,29.8L197.9,29.8c0,0,0,0.1-0.1,0.1C197.8,29.9,197.9,29.8,197.9,29.8z"/>
	<path class="st3" d="M197.8,29.9c-0.1,0.1-0.1,0.2-0.1,0.3C197.7,30.1,197.8,30,197.8,29.9z"/>
	<path class="st4" d="M176.1,6.8c-1.1,0-6.9-0.7-13.2,2.1c-0.2,0.1-0.4,0.2-0.6,0.3c-1.4,0.6-2.7,1.4-4.1,2.5
		c-1.2,0.9-2.1,1.9-2.9,2.9c-3.9,5.1-4.2,12.5-6,20.9c-0.4,2-0.7,3.3-1.1,5.5c4.4-2.3,9.2-2.8,14.5-2.8h17.8
		c6.4,0,10.6-1.4,13.3-3.3c2-1.4,3.2-3.1,4-4.7c0.1-0.1,0.1-0.2,0.1-0.3c0,0,0-0.1,0.1-0.1c0.7-1.6,1-3.2,1.3-4.4L203,6.8
		C203,6.8,185.1,6.8,176.1,6.8z"/>
</g>
<g>
	
		<linearGradient id="SVGID_1_" gradientUnits="userSpaceOnUse" x1="146.5211" y1="28.4051" x2="177.8925" y2="28.8914" gradientTransform="matrix(1 0 0 1 0 86)">
		<stop  offset="0" style="stop-color:#4D4D4D"/>
		<stop  offset="1" style="stop-color:#4D4D4D;stop-opacity:0.5"/>
	</linearGradient>
	<polygon class="st5" points="176.8,123 176.8,123 180.1,106.8 180.1,106.8 	"/>
	
		<linearGradient id="SVGID_2_" gradientUnits="userSpaceOnUse" x1="160.736" y1="63.4971" x2="192.1074" y2="63.9835" gradientTransform="matrix(1 0 0 1 0 86)">
		<stop  offset="0" style="stop-color:#4D4D4D"/>
		<stop  offset="1" style="stop-color:#4D4D4D;stop-opacity:0.5"/>
	</linearGradient>
	<polygon class="st6" points="145.3,146.8 144.3,151.7 144.3,151.7 	"/>
	<path class="st4" d="M155.5,106.8L155.5,106.8c-10.3,0-19.1,6.8-22.1,16.1l-2.6,9.3l-1,5L118,194.7h18.9c10.8,0,20.3-5.6,25.9-14
		c2.2-3.3,3.8-7.1,4.6-11.2l9.5-46.5l3.3-16.2H155.5z"/>
	
		<linearGradient id="SVGID_3_" gradientUnits="userSpaceOnUse" x1="146.4055" y1="35.8668" x2="177.7769" y2="36.3531" gradientTransform="matrix(1 0 0 1 0 86)">
		<stop  offset="0" style="stop-color:#4D4D4D"/>
		<stop  offset="1" style="stop-color:#4D4D4D;stop-opacity:0.5"/>
	</linearGradient>
	<path class="st7" d="M155.5,106.8L155.5,106.8c-10.3,0-19.1,6.8-22.1,16.1l-2.6,9.3l-1,5c5.8-12.4,15.7-14.5,28.4-14.5
		c5.7,0,12,0.3,18.7,0.3l3.3-16.2H155.5z"/>
</g>
<linearGradient id="SVGID_4_" gradientUnits="userSpaceOnUse" x1="130.8" y1="20.55" x2="227.6" y2="20.55" gradientTransform="matrix(1 0 0 1 0 86)">
	<stop  offset="0.2486" style="stop-color:#6C8EA3"/>
	<stop  offset="0.3552" style="stop-color:#7394AA"/>
	<stop  offset="0.5198" style="stop-color:#86A5BA"/>
	<stop  offset="0.7212" style="stop-color:#A7C0D5"/>
	<stop  offset="0.9226" style="stop-color:#CFE1F4"/>
</linearGradient>
<path class="st8" d="M201.5,101.4h-46l0,0c-0.8,0-1.5,0-2.2,0.1c-8.5,0.8-16.5,6.6-19.5,16l-3,14.8l2.6-9.3
	c3-9.3,11.8-16.1,22.1-16.1l0,0h24.6h20.3c12.7,0,23.3-8.8,26.1-20.6l1.1-5.5C224.8,92.6,214.1,101.4,201.5,101.4z"/>
<path class="st9" d="M159.1,47.5c-0.5,0-1,0-1.4,0.1C145,48.3,134.6,57.7,132.6,70l-4.4,22.1c0,0.1-0.1,0.3-0.1,0.4
	c-0.6,2.9-1,5-1,5c-2.7,9.9-11.7,17.2-22.4,17.2l0,0l0,0H83.3h-1.1c-11,0-20.2,7.7-22.6,18l-4.7,23.1l0,0H107
	c11.1,0,20.4-7.8,22.7-18.1l0.1-0.4l4-19.9c3-9.3,11.4-16.1,21.8-16.1l0,0h46c12.7,0,23.3-8.8,26.2-20.6l6.8-33.3L159.1,47.5z"/>
<path class="st10" d="M129.6,137.7c-2.3,10.4-11.6,18.1-22.7,18.1H54.8l4.7-23.1c2.4-10.3,11.6-18,22.6-18l0,0
	c-11,0-20.2,7.7-22.6,18l1.1-5.3c0.9-3.9,2.7-7.4,5.3-10.3c1.3-1.4,2.7-2.7,4.3-3.8c1.1-0.7,2.2-1.4,3.4-1.9c3-1.4,6.2-2.1,9.7-2.1
	h22.5l0,0l0,0c0.7,0,1.3,0,2-0.1c0.3,0,0.5-0.1,0.7-0.1c0.4,0,0.8-0.1,1.2-0.1c0.3,0,0.6-0.1,0.9-0.2s0.6-0.1,0.9-0.2
	c0.4-0.1,0.7-0.2,1.1-0.3c0.3-0.1,0.5-0.1,0.8-0.2c0.4-0.1,0.8-0.3,1.2-0.5c0.2-0.1,0.4-0.1,0.6-0.2c0.4-0.2,0.8-0.4,1.2-0.6
	c0.1-0.1,0.3-0.1,0.4-0.2c0.4-0.2,0.9-0.5,1.3-0.8c0.1-0.1,0.2-0.1,0.3-0.2c0.5-0.3,0.9-0.6,1.3-0.9c0.1,0,0.1-0.1,0.2-0.1
	c0.5-0.4,0.9-0.7,1.3-1.1c0,0,0.1,0,0.1-0.1c0.4-0.4,0.9-0.8,1.3-1.3l0,0c2.5-2.7,4.4-5.9,5.5-9.6c-0.6,2.9-1,5-1,5
	c-2.7,9.9-11.7,17.2-22.4,17.2l0,0l0,0l0,0c10.8,0,19.8-7.3,22.4-17.2c0,0,0.4-2.1,1-5c0-0.1,0.1-0.3,0.1-0.4c0,0,3.6-18.1,4.3-21.6
	H54.8c-7.2,0-13.8,2.5-19.1,6.6C30.1,81.5,26,87.8,24.4,95c-0.2,0.7-8.3,40.9-14.3,70c-3.1,15.3,8.6,29.5,24.1,29.5h83.6
	L129.6,137.7z"/>
<linearGradient id="SVGID_5_" gradientUnits="userSpaceOnUse" x1="103.5751" y1="6.5405" x2="164.043" y2="20.0246" gradientTransform="matrix(1 0 0 1 0 86)">
	<stop  offset="0" style="stop-color:#C7C7C7;stop-opacity:0"/>
	<stop  offset="5.710000e-02" style="stop-color:#BCBCBC;stop-opacity:7.270000e-02"/>
	<stop  offset="0.2035" style="stop-color:#A6A6A6;stop-opacity:0.2592"/>
	<stop  offset="0.344" style="stop-color:#999999;stop-opacity:0.4382"/>
	<stop  offset="0.471" style="stop-color:#959595;stop-opacity:0.6"/>
	<stop  offset="0.6543" style="stop-color:#A3A3A3;stop-opacity:0.3921"/>
	<stop  offset="0.9992" style="stop-color:#C7C7C7;stop-opacity:9.168983e-04"/>
	<stop  offset="1" style="stop-color:#C7C7C7;stop-opacity:0"/>
</linearGradient>
<path class="st11" d="M159.1,47.5c-13.4,0-24.4,9.7-26.5,22.5c0,0,0,0.2-0.1,0.6c-0.7,3.5-4.3,21.6-4.3,21.6c0,0.1-0.1,0.3-0.1,0.4
	c-0.6,2.9-1,5-1,5c-2.7,9.9-11.7,17.2-22.4,17.2l0,0H82.2c-11,0-20.2,7.7-22.6,18l-4.7,23.1H107c11.1,0,20.4-7.8,22.7-18.1l4.1-20.3
	c0-0.1,0.1-0.3,0.1-0.4c3.1-9.1,11.4-15.7,21.6-15.7l0,0h46c12.7,0,23.3-8.8,26.1-20.6l6.8-33.3L159.1,47.5z"/>
<linearGradient id="SVGID_6_" gradientUnits="userSpaceOnUse" x1="106.5" y1="69.9" x2="106.5" y2="69.9" gradientTransform="matrix(1 0 0 1 0 86)">
	<stop  offset="0.1845" style="stop-color:#B6B6B6"/>
	<stop  offset="0.5366" style="stop-color:#D2D2D2"/>
	<stop  offset="0.8086" style="stop-color:#E4E4E4"/>
</linearGradient>
<path class="st12" d="M106.5,155.9L106.5,155.9L106.5,155.9z"/>
<linearGradient id="SVGID_7_" gradientUnits="userSpaceOnUse" x1="106.5" y1="69.9" x2="106.5" y2="69.9" gradientTransform="matrix(1 0 0 1 0 86)">
	<stop  offset="0" style="stop-color:#C7C7C7;stop-opacity:0"/>
	<stop  offset="5.710000e-02" style="stop-color:#BCBCBC;stop-opacity:7.270000e-02"/>
	<stop  offset="0.2035" style="stop-color:#A6A6A6;stop-opacity:0.2592"/>
	<stop  offset="0.344" style="stop-color:#999999;stop-opacity:0.4382"/>
	<stop  offset="0.471" style="stop-color:#959595;stop-opacity:0.6"/>
	<stop  offset="0.6543" style="stop-color:#A3A3A3;stop-opacity:0.3921"/>
	<stop  offset="0.9992" style="stop-color:#C7C7C7;stop-opacity:9.168983e-04"/>
	<stop  offset="1" style="stop-color:#C7C7C7;stop-opacity:0"/>
</linearGradient>
<path class="st13" d="M106.5,155.9L106.5,155.9L106.5,155.9z"/>
<linearGradient id="SVGID_8_" gradientUnits="userSpaceOnUse" x1="122.6" y1="16.1" x2="122.6" y2="16.1" gradientTransform="matrix(1 0 0 1 0 86)">
	<stop  offset="0.1845" style="stop-color:#B6B6B6"/>
	<stop  offset="0.5366" style="stop-color:#D2D2D2"/>
	<stop  offset="0.8086" style="stop-color:#E4E4E4"/>
</linearGradient>
<path class="st14" d="M122.6,102.1L122.6,102.1L122.6,102.1z"/>
<path class="st10" d="M257.4,180.6l2.5-1.5l-2.8,12.6l-0.5,0.3c-7.1,3.6-13.9,5.3-21.8,5.3c-9.2,0-16.4-2.9-20.8-8.5
	c-4.7-5.8-6-14.1-3.7-24.1c4.4-19.4,19.5-32.6,38.5-32.6c8,0,14,1.6,19.6,5.4l0.7,0.5l-2.7,12l-1.6-1.3c-4.4-3.6-10.5-5.6-17.3-5.6
	c-11.9,0-21.2,8.9-24.2,22.3c-1.6,7-0.9,12.7,2.1,16.4c2.5,3.1,6.6,4.8,12,4.8C244.1,186.4,251.3,184.3,257.4,180.6z M274.6,150.9
	l-10.2,45.4h12.3l10.2-45.4H274.6z M291.5,131.2h-12.3l-2.7,12.2h12.3L291.5,131.2z M314.8,148.6c-11.5,0-19.5,5.2-21.5,13.8
	c-2.5,11.1,7.3,13.8,14.4,15.7c5.4,1.5,7.8,2.3,7.4,4.3c-0.5,2.1-2,4.6-9.3,4.6c-6,0-11.5-1.8-15.4-5.1l-1.6-1.3l-2.5,11l0.6,0.5
	c4.1,3.4,10.2,5.2,17.9,5.2c12.5,0,20.9-5.4,23-14.9c2.5-11-7.4-13.6-14.5-15.4c-5.5-1.4-8-2.3-7.5-4.2c0.5-2.3,2.1-3.8,8-3.8
	c5.8,0,11,1.8,15,5.1l1.6,1.3l2.5-11l-0.6-0.5C328,150.3,322.3,148.6,314.8,148.6z M400.8,148.6c-4.9,0-11.8,1.7-18.2,9.5
	c-0.3-2.5-1.2-4.5-2.6-6.1c-2.1-2.2-5.3-3.4-9.4-3.4c-6,0-11.5,2.6-16.1,7.5l1.5-6.6h-12.3l-10.5,46.8h12.3l2.8-12.5
	c3.5-15.8,9.7-24.8,16.9-24.8c2.1,0,3.5,0.5,4.3,1.5c1.1,1.3,1.2,3.7,0.4,7.1l-6.4,28.6h12.3l2.8-12.5c3.5-15.8,9.7-24.8,16.8-24.8
	c2.1,0,3.5,0.5,4.3,1.5c1.1,1.3,1.2,3.7,0.4,7.1l-6.4,28.6H406l6.6-29.3c1.5-6.4,0.9-11.3-1.6-14.4
	C408.8,150,405.4,148.6,400.8,148.6z M463.4,155c3.5,4.4,4.6,10.9,3,18.2c-2.7,12-12.7,24-28.9,24c-6.8,0-12.2-2.2-15.5-6.3
	c-3.5-4.4-4.6-10.9-3-18.2c2.7-12,12.6-24,28.8-24C454.7,148.6,460.1,150.8,463.4,155z M452.4,161.1c-1.4-1.7-3.4-2.5-6.2-2.5
	c-8.2,0-12.9,7.5-14.4,14.6c-1.1,4.9-0.6,9.1,1.3,11.5c1.3,1.7,3.4,2.5,6.2,2.5c8.3,0,12.9-7.5,14.5-14.6
	C454.8,167.7,454.4,163.5,452.4,161.1z M506.7,148.6c-6,0-11.5,2.6-16.1,7.5l1.5-6.6h-12.3l-10.5,46.8h12.3l2.8-12.5
	c3.5-15.8,9.7-24.8,16.9-24.8c2.1,0,3.5,0.5,4.3,1.5c1.1,1.3,1.2,3.7,0.4,7.1l-6.4,28.6h12.3l6.6-29.3c1.4-6.4,0.9-11.2-1.6-14.4
	C514.8,150,511.3,148.6,506.7,148.6z M580.1,132.7l-14.3,63.6h-12.3l1-4.3c-3.8,3.3-8.9,5.2-14.2,5.2c-5.5,0-9.8-1.8-12.6-5.2
	c-3.5-4.3-4.3-11-2.4-19.3c3.4-15,12.9-24,25.3-24c5.6,0,10,2,12.4,5.6l4.8-21.5L580.1,132.7L580.1,132.7z M558.9,172.6
	c1.2-5.1,0.8-9.1-1.2-11.5c-1.3-1.6-3.3-2.5-5.9-2.5c-9.5,0-12.8,10.2-13.8,14.6c-1.2,5.3-0.8,9.5,1,11.7c1.2,1.5,3.2,2.3,5.8,2.3
	C551.5,187.2,556.9,181.6,558.9,172.6z M591.2,131.2l-2.7,12.2h12.3l2.7-12.2H591.2z M576.3,196.3h12.3l10.2-45.4h-12.3L576.3,196.3
	z"/>
<g>
	<path class="st10" d="M652.3,157.6c-6.6-2.2-10.6-3.9-10.3-7.3c0.4-4.7,4.6-7.1,12.3-7.1c4.9,0,12.6,1.5,17.9,5.6l1.7,1.3l2.7-12.1
		l-0.8-0.5c-5.8-3.6-12.7-5.4-21-5.4c-14.9,0-25.3,7.9-26.3,20.1c-1,11,8.8,14.4,16.7,17.2c7,2.5,11.1,4.2,10.8,8.2
		c-0.7,7.9-11.1,8.6-14.2,8.6c-6.9,0-13.7-2.1-18.3-5.6l-1.7-1.3l-2.8,12.1l0.8,0.5c5.9,3.7,12.7,5.4,21.4,5.4
		c15.8,0,27.2-8.8,28.3-21.9C670.6,163.8,660.5,160.4,652.3,157.6z"/>
	<path class="st10" d="M708.3,160.9l2.7-12.2h-1.7c-5.8,0-11.3,3-15.8,8.4l1.7-7.5h-12.4l-10.5,46.8h12.4l2.9-13
		c4.5-19.9,12.8-22.5,19.6-22.5H708.3L708.3,160.9z"/>
	<path class="st10" d="M723,186.8c-0.7,0-1.2-0.1-1.3-0.3c-0.1-0.1-0.3-0.4-0.2-1.5c0-0.5,0.2-1.3,0.3-1.9l11.3-50.4h-12.5
		l-11.4,50.4c-0.3,1.5-0.6,3.3-0.8,4.5c-0.3,3.1,0.3,5.4,1.8,7c1.6,1.7,4.2,2.6,7.9,2.6c1.7,0,4.7-0.4,6.6-1l0.7-0.2l2.5-10.5
		l-2.3,0.8C724.8,186.7,723.6,186.8,723,186.8z"/>
</g>
</svg>
