<?xml version="1.0" encoding="utf-8"?>
<!-- Generator: Adobe Illustrator 24.0.1, SVG Export Plug-In . SVG Version: 6.00 Build 0)  -->
<svg version="1.1" id="Capa_1" xmlns="http://www.w3.org/2000/svg" xmlns:xlink="http://www.w3.org/1999/xlink" x="0px" y="0px"
	 viewBox="0 0 737.9 210" style="enable-background:new 0 0 737.9 210;" xml:space="preserve">
<style type="text/css">
	.st0{fill:#FFFFFF;}
</style>
<path class="st0" d="M68.3,128.1l3.5-2.1l-4,17.7l-0.7,0.4c-10.1,5.1-19.5,7.4-30.7,7.4c-12.9,0-23.1-4.1-29.3-11.9
	c-6.6-8.2-8.4-19.9-5.2-33.8c6.1-27.3,27.4-45.8,54.1-45.8c11.2,0,19.7,2.3,27.6,7.5l1,0.7l-3.8,16.8L78.7,83
	c-6.2-5.1-14.8-7.9-24.4-7.9c-16.8,0-29.8,12.5-34.1,31.3c-2.2,9.9-1.2,17.9,2.9,23c3.5,4.4,9.3,6.7,16.8,6.7
	C49.6,136.2,59.7,133.3,68.3,128.1z M92.5,86.3l-14.4,63.8h17.2l14.4-63.8H92.5z M116.3,58.6H99.1l-3.9,17.1h17.2L116.3,58.6z
	 M149,83.1c-16.2,0-27.5,7.3-30.2,19.4c-3.5,15.6,10.2,19.3,20.2,22c7.5,2,11,3.3,10.4,6c-0.7,3-2.8,6.5-13.1,6.5
	c-8.4,0-16.1-2.6-21.7-7.2l-2.2-1.8l-3.5,15.5l0.8,0.7c5.8,4.8,14.3,7.3,25.2,7.3c17.6,0,29.4-7.6,32.4-20.9
	c3.5-15.5-10.4-19.1-20.5-21.7c-7.7-2-11.2-3.2-10.6-5.9c0.7-3.2,2.9-5.3,11.3-5.3c8.2,0,15.4,2.5,21.1,7.2l2.2,1.8l3.5-15.5
	l-0.8-0.7C167.7,85.5,159.6,83.1,149,83.1z M269.9,83.1c-6.8,0-16.5,2.4-25.6,13.3c-0.4-3.5-1.7-6.4-3.7-8.6
	c-2.9-3.2-7.4-4.8-13.3-4.8c-8.4,0-16.1,3.6-22.6,10.6l2.1-9.3h-17.2l-14.8,65.8H192l4-17.6c5-22.1,13.7-34.9,23.8-34.9
	c3,0,5,0.7,6.1,2.1c1.5,1.9,1.7,5.2,0.6,10.1l-9.1,40.2h17.2l4-17.6c5-22.1,13.6-34.9,23.7-34.9c3,0,5,0.7,6.1,2.1
	c1.5,1.9,1.7,5.2,0.6,10.1l-9.1,40.2h17.2l9.3-41.2c2-9.1,1.3-15.9-2.2-20.3C281.2,85,276.5,83.1,269.9,83.1z M358,92.1
	c5,6.2,6.5,15.3,4.2,25.6c-3.8,16.8-17.8,33.8-40.6,33.8c-9.6,0-17.1-3.1-21.8-8.9c-5-6.2-6.5-15.3-4.1-25.6
	c3.8-16.8,17.8-33.8,40.5-33.8C345.8,83.1,353.4,86.2,358,92.1z M342.6,100.7c-1.9-2.4-4.8-3.6-8.8-3.6c-11.6,0-18.1,10.6-20.3,20.5
	c-1.6,6.9-0.9,12.9,1.8,16.2c1.9,2.3,4.8,3.5,8.7,3.5c11.7,0,18.2-10.6,20.4-20.5C346,110,345.3,104,342.6,100.7z M418.9,83.1
	c-8.4,0-16.1,3.6-22.6,10.6l2.1-9.3h-17.2l-14.8,65.8h17.2l4-17.6c5-22.1,13.7-34.9,23.8-34.9c3,0,5,0.7,6.1,2.1
	c1.5,1.9,1.7,5.2,0.6,10.1l-9.1,40.2h17.2l9.3-41.2c2-9,1.3-15.8-2.3-20.2C430.2,85,425.4,83.1,418.9,83.1z M522.2,60.7L502,150.1
	h-17.2l1.4-6c-5.4,4.6-12.5,7.3-20,7.3c-7.7,0-13.8-2.5-17.7-7.4c-4.9-6.1-6-15.5-3.4-27.2c4.8-21.1,18.1-33.8,35.6-33.8
	c7.9,0,14,2.8,17.4,7.8l6.8-30.2L522.2,60.7L522.2,60.7z M492.3,116.9c1.6-7.2,1.1-12.8-1.7-16.2c-1.8-2.3-4.7-3.5-8.3-3.5
	c-13.4,0-18.1,14.4-19.4,20.5c-1.7,7.4-1.2,13.3,1.4,16.5c1.7,2.2,4.5,3.2,8.2,3.2C481.9,137.4,489.5,129.5,492.3,116.9z
	 M537.8,58.6l-3.9,17.1h17.2l3.9-17.1H537.8z M516.8,150.1H534l14.4-63.8h-17.2L516.8,150.1z M623.7,95.7c-9.3-3.2-15-5.4-14.5-10.3
	c0.6-6.7,6.4-10,17.4-10c6.9,0,17.7,2.1,25.2,7.9l2.4,1.9l3.8-17.1l-1.2-0.7c-8.2-5.1-17.8-7.6-29.5-7.6c-21,0-35.5,11.1-37,28.2
	c-1.3,15.5,12.4,20.3,23.5,24.2c9.8,3.4,15.7,5.9,15.2,11.5c-1,11.2-15.6,12-20,12c-9.7,0-19.3-2.9-25.7-7.9l-2.4-1.8l-4,17l1.2,0.7
	c8.3,5.2,17.8,7.6,30.1,7.6c22.2,0,38.3-12.4,39.8-30.8C649.4,104.4,635.2,99.6,623.7,95.7z M702.4,100.3l3.9-17.2h-2.4
	c-8.2,0-15.9,4.2-22.2,11.8l2.4-10.5h-17.4l-14.8,65.8h17.4l4.1-18.2c6.4-28,18.1-31.6,27.6-31.6L702.4,100.3L702.4,100.3z
	 M723.2,136.8c-1,0-1.6-0.2-1.9-0.4c-0.1-0.1-0.4-0.6-0.3-2.1c0.1-0.7,0.3-1.8,0.5-2.6l16-70.9h-17.6l-16,70.9
	c-0.4,2.2-0.9,4.6-1.1,6.4c-0.4,4.4,0.4,7.7,2.5,9.9c2.2,2.4,5.9,3.6,11.1,3.6c2.4,0,6.7-0.5,9.3-1.3l1-0.3l3.6-14.7l-3.3,1.1
	C725.6,136.6,723.9,136.8,723.2,136.8z"/>
</svg>
